Gait_medial_04_analogdata.mot
version=1
nRows=54
nColumns=19
inDegrees=yes
endheader
time	1_ground_force_vx	1_ground_force_vy	1_ground_force_vz	1_ground_force_px	1_ground_force_py	1_ground_force_pz	1_ground_torque_x	1_ground_torque_y	1_ground_torque_z	2_ground_force_vx	2_ground_force_vy	2_ground_force_vz	2_ground_force_px	2_ground_force_py	2_ground_force_pz	2_ground_torque_x	2_ground_torque_y	2_ground_torque_z
0.217000	-12.888389	496.722748	-76.911875	-0.136617	0.000000	-0.340412	-0.018710	0.721081	-0.111651	0.000000	0.000000	-0.000000	-0.200000	0.000000	0.302000	0.000000	0.000000	-0.000000
0.218000	-13.333818	498.822296	-77.000345	-0.135546	0.000000	-0.338682	-0.021048	0.787430	-0.121551	0.000000	0.000000	-0.000000	-0.200000	0.000000	0.302000	0.000000	0.000000	-0.000000
0.219000	-14.402848	492.173767	-76.558001	-0.134446	0.000000	-0.340142	-0.023415	0.800149	-0.124464	0.000000	0.000000	-0.000000	-0.200000	0.000000	0.302000	0.000000	0.000000	-0.000000
0.220000	-12.799304	501.271759	-74.434740	-0.135515	0.000000	-0.339064	-0.031827	1.246490	-0.185093	0.000000	0.000000	-0.000000	-0.200000	0.000000	0.302000	0.000000	0.000000	-0.000000
0.221000	-14.224676	503.371277	-76.646471	-0.135440	0.000000	-0.339267	-0.032544	1.151637	-0.175356	0.000000	0.000000	-0.000000	-0.200000	0.000000	0.302000	0.000000	0.000000	-0.000000
0.222000	-15.828221	505.470825	-78.327387	-0.135518	0.000000	-0.339105	-0.032719	1.044862	-0.161911	0.000000	0.000000	-0.000000	-0.200000	0.000000	0.302000	0.000000	0.000000	-0.000000
0.223000	-16.719080	502.671448	-77.177287	-0.134587	0.000000	-0.339599	-0.034017	1.022748	-0.157027	0.000000	0.000000	-0.000000	-0.200000	0.000000	0.302000	0.000000	0.000000	-0.000000
0.224000	-16.986335	506.170654	-76.911875	-0.134916	0.000000	-0.339413	-0.032369	0.964564	-0.146564	0.000000	0.000000	-0.000000	-0.200000	0.000000	0.302000	0.000000	0.000000	-0.000000
0.225000	-17.520851	506.520599	-78.769732	-0.135292	0.000000	-0.338865	-0.044025	1.272758	-0.197928	0.000000	0.000000	-0.000000	-0.200000	0.000000	0.302000	0.000000	0.000000	-0.000000
0.226000	-18.768053	508.620117	-77.177287	-0.135558	0.000000	-0.335916	-0.048331	1.309777	-0.198744	0.000000	0.000000	-0.000000	-0.200000	0.000000	0.302000	0.000000	0.000000	-0.000000
0.227000	-18.946224	517.718079	-77.177287	-0.135392	0.000000	-0.336533	-0.052271	1.428332	-0.212924	0.000000	0.000000	-0.000000	-0.200000	0.000000	0.302000	0.000000	0.000000	-0.000000
0.228000	-19.124395	519.117798	-78.238917	-0.135754	0.000000	-0.336528	-0.055029	1.493709	-0.225125	0.000000	0.000000	-0.000000	-0.200000	0.000000	0.302000	0.000000	0.000000	-0.000000
0.229000	-20.282510	519.817627	-78.061977	-0.135198	0.000000	-0.336470	-0.050326	1.289795	-0.193691	0.000000	0.000000	-0.000000	-0.200000	0.000000	0.302000	0.000000	0.000000	-0.000000
0.230000	-20.727939	519.817627	-78.769733	-0.133990	0.000000	-0.337376	-0.062288	1.562068	-0.236706	0.000000	0.000000	-0.000000	-0.200000	0.000000	0.302000	0.000000	0.000000	-0.000000
0.231000	-21.173370	519.467712	-78.681262	-0.133519	0.000000	-0.337721	-0.044671	1.095967	-0.166001	0.000000	0.000000	-0.000000	-0.200000	0.000000	0.302000	0.000000	0.000000	-0.000000
0.232000	-21.796970	516.318420	-78.769733	-0.133217	0.000000	-0.339919	-0.051459	1.218942	-0.185962	0.000000	0.000000	-0.000000	-0.200000	0.000000	0.302000	0.000000	0.000000	-0.000000
0.233000	-22.420570	517.368164	-77.265758	-0.133378	0.000000	-0.337461	-0.060646	1.399446	-0.208999	0.000000	0.000000	-0.000000	-0.200000	0.000000	0.302000	0.000000	0.000000	-0.000000
0.234000	-21.351541	525.766296	-79.742893	-0.134613	0.000000	-0.336340	-0.061279	1.508944	-0.228861	0.000000	0.000000	-0.000000	-0.200000	0.000000	0.302000	0.000000	0.000000	-0.000000
0.235000	-24.291372	529.265564	-78.592792	-0.133538	0.000000	-0.336006	-0.057442	1.251550	-0.185848	0.000000	0.000000	-0.000000	-0.200000	0.000000	0.302000	0.000000	0.000000	-0.000000
0.236000	-23.578685	532.764771	-78.946674	-0.133510	0.000000	-0.336471	-0.063994	1.445948	-0.214265	0.000000	0.000000	-0.000000	-0.200000	0.000000	0.302000	0.000000	0.000000	-0.000000
0.237000	-24.825887	533.814514	-78.769733	-0.133229	0.000000	-0.335288	-0.067750	1.456779	-0.214962	0.000000	0.000000	-0.000000	-0.200000	0.000000	0.302000	0.000000	0.000000	-0.000000
0.238000	-25.182229	541.512817	-78.327389	-0.133828	0.000000	-0.335430	-0.094870	2.040066	-0.295086	0.000000	0.000000	-0.000000	-0.200000	0.000000	0.302000	0.000000	0.000000	-0.000000
0.239000	-25.716745	539.413330	-79.389019	-0.135187	0.000000	-0.335721	-0.085331	1.789836	-0.263422	0.000000	0.000000	-0.000000	-0.200000	0.000000	0.302000	0.000000	0.000000	-0.000000
0.240000	-26.963947	543.962280	-78.946675	-0.134470	0.000000	-0.334581	-0.086653	1.748120	-0.253709	0.000000	0.000000	-0.000000	-0.200000	0.000000	0.302000	0.000000	0.000000	-0.000000
0.241000	-27.053031	548.161377	-78.415852	-0.134159	0.000000	-0.334154	-0.089969	1.823004	-0.260785	0.000000	0.000000	-0.000000	-0.200000	0.000000	0.302000	0.000000	0.000000	-0.000000
0.242000	-27.765718	549.211121	-79.123608	-0.133590	0.000000	-0.334162	-0.084400	1.669445	-0.240513	0.000000	0.000000	-0.000000	-0.200000	0.000000	0.302000	0.000000	0.000000	-0.000000
0.243000	-27.320289	554.459961	-78.946675	-0.133187	0.000000	-0.333641	-0.066158	1.342659	-0.191174	0.000000	0.000000	-0.000000	-0.200000	0.000000	0.302000	0.000000	0.000000	-0.000000
0.244000	-28.122062	560.058716	-78.946675	-0.133093	0.000000	-0.333523	-0.050852	1.012731	-0.142756	0.000000	0.000000	-0.000000	-0.200000	0.000000	0.302000	0.000000	0.000000	-0.000000
0.245000	-28.656578	558.659058	-78.327389	-0.131573	0.000000	-0.334882	-0.074748	1.457218	-0.204311	0.000000	0.000000	-0.000000	-0.200000	0.000000	0.302000	0.000000	0.000000	-0.000000
0.246000	-29.102006	554.809875	-78.150448	-0.131912	0.000000	-0.334646	-0.084866	1.617904	-0.227898	0.000000	0.000000	-0.000000	-0.200000	0.000000	0.302000	0.000000	0.000000	-0.000000
0.247000	-29.903778	566.007446	-77.000348	-0.133195	0.000000	-0.334128	-0.088266	1.670667	-0.227280	0.000000	0.000000	-0.000000	-0.200000	0.000000	0.302000	0.000000	0.000000	-0.000000
0.248000	-30.883722	569.156738	-78.946675	-0.133287	0.000000	-0.333415	-0.065127	1.200218	-0.166480	0.000000	0.000000	-0.000000	-0.200000	0.000000	0.302000	0.000000	0.000000	-0.000000
0.249000	-32.398181	575.455322	-78.061979	-0.133501	0.000000	-0.332608	-0.086233	1.531673	-0.207775	0.000000	0.000000	-0.000000	-0.200000	0.000000	0.302000	0.000000	0.000000	-0.000000
0.250000	-31.329151	578.604614	-77.442693	-0.133319	0.000000	-0.332654	-0.078122	1.442800	-0.193110	0.000000	0.000000	-0.000000	-0.200000	0.000000	0.302000	0.000000	0.000000	-0.000000
0.251000	-32.754524	581.054077	-77.088819	-0.132412	0.000000	-0.331493	-0.080346	1.425306	-0.189096	0.000000	0.000000	-0.000000	-0.200000	0.000000	0.302000	0.000000	0.000000	-0.000000
0.252000	-32.309097	588.402466	-77.000348	-0.132927	0.000000	-0.331834	-0.099393	1.810117	-0.236878	0.000000	0.000000	-0.000000	-0.200000	0.000000	0.302000	0.000000	0.000000	-0.000000
0.253000	-33.467212	589.102295	-78.061979	-0.132385	0.000000	-0.331618	-0.086212	1.517539	-0.201089	0.000000	0.000000	-0.000000	-0.200000	0.000000	0.302000	0.000000	0.000000	-0.000000
0.254000	-33.378124	596.100769	-76.646474	-0.132838	0.000000	-0.330648	-0.096341	1.720561	-0.221229	0.000000	0.000000	-0.000000	-0.200000	0.000000	0.302000	0.000000	0.000000	-0.000000
0.255000	-34.981670	599.250061	-77.885038	-0.133202	0.000000	-0.330154	-0.080112	1.372346	-0.178365	0.000000	0.000000	-0.000000	-0.200000	0.000000	0.302000	0.000000	0.000000	-0.000000
0.256000	-35.248928	603.099182	-77.708105	-0.132769	0.000000	-0.330120	-0.083989	1.437021	-0.185157	0.000000	0.000000	-0.000000	-0.200000	0.000000	0.302000	0.000000	0.000000	-0.000000
0.257000	-36.139785	606.598450	-77.796575	-0.132537	0.000000	-0.329551	-0.073798	1.238682	-0.158862	0.000000	0.000000	-0.000000	-0.200000	0.000000	0.302000	0.000000	0.000000	-0.000000
0.258000	-35.070755	611.147400	-78.150449	-0.132120	0.000000	-0.329536	-0.061109	1.064887	-0.136172	0.000000	0.000000	-0.000000	-0.200000	0.000000	0.302000	0.000000	0.000000	-0.000000
0.259000	-35.605270	611.497375	-79.123609	-0.132033	0.000000	-0.330224	-0.079340	1.362606	-0.176312	0.000000	0.000000	-0.000000	-0.200000	0.000000	0.302000	0.000000	0.000000	-0.000000
0.260000	-34.625328	614.996582	-78.592794	-0.131728	0.000000	-0.328275	-0.088121	1.565158	-0.200018	0.000000	0.000000	-0.000000	-0.200000	0.000000	0.302000	0.000000	0.000000	-0.000000
0.261000	-34.625327	624.794434	-81.335340	-0.132482	0.000000	-0.328058	-0.091565	1.652243	-0.215088	0.000000	0.000000	-0.000000	-0.200000	0.000000	0.302000	0.000000	0.000000	-0.000000
0.262000	-36.317954	626.893921	-79.654424	-0.132743	0.000000	-0.327373	-0.088122	1.521093	-0.193273	0.000000	0.000000	-0.000000	-0.200000	0.000000	0.302000	0.000000	0.000000	-0.000000
0.263000	-34.714412	629.693298	-78.946676	-0.132218	0.000000	-0.327422	-0.104030	1.887019	-0.236582	0.000000	0.000000	-0.000000	-0.200000	0.000000	0.302000	0.000000	0.000000	-0.000000
0.264000	-32.487266	633.542480	-79.212079	-0.132934	0.000000	-0.327021	-0.092972	1.813061	-0.226688	0.000000	0.000000	-0.000000	-0.200000	0.000000	0.302000	0.000000	0.000000	-0.000000
0.265000	-32.130924	634.942139	-77.885038	-0.132243	0.000000	-0.325530	-0.102113	2.017861	-0.247520	0.000000	0.000000	-0.000000	-0.200000	0.000000	0.302000	0.000000	0.000000	-0.000000
0.266000	-30.527380	636.341858	-76.115659	-0.132124	0.000000	-0.326350	-0.109154	2.275303	-0.272159	0.000000	0.000000	-0.000000	-0.200000	0.000000	0.302000	0.000000	0.000000	-0.000000
0.267000	-29.012921	639.841064	-73.992398	-0.132762	0.000000	-0.325492	-0.111397	2.456718	-0.284099	0.000000	0.000000	-0.000000	-0.200000	0.000000	0.302000	0.000000	0.000000	-0.000000
0.268000	-27.498462	644.739990	-76.558003	-0.132740	0.000000	-0.325221	-0.107283	2.515395	-0.298684	0.000000	0.000000	-0.000000	-0.200000	0.000000	0.302000	0.000000	0.000000	-0.000000
0.269000	-29.012920	645.439819	-76.823407	-0.133068	0.000000	-0.325192	-0.105843	2.354647	-0.280262	0.000000	0.000000	-0.000000	-0.200000	0.000000	0.302000	0.000000	0.000000	-0.000000
0.270000	-28.300234	645.789734	-76.204129	-0.132623	0.000000	-0.324475	-0.110923	2.531170	-0.298682	0.000000	0.000000	-0.000000	-0.200000	0.000000	0.302000	0.000000	0.000000	-0.000000
